<?xml version="1.0" encoding="UTF-8"?>
<!--This file is generated by Inkscape. Please modify `default.inkscape.svg` and export to this file.-->
<svg width="48" height="48" version="1.1" viewBox="0 0 48 48" xmlns="http://www.w3.org/2000/svg"><path d="m5.0903e-4 47.997 48.008 0.003353s7e-5 -38.023 7e-5 -48c0 0-34.169-7.04e-5 -48.009-7.04e-5 0 0 5.0903e-4 34.155 5.0903e-4 47.997zm31.997-31.997c0 4.4267-3.5864 8-7.9994 8s-7.9994-3.5733-7.9994-8c0-4.4133 3.5864-8 7.9994-8s7.9994 3.5867 7.9994 8zm-23.998 21.333c0-5.3333 10.666-8.2667 15.999-8.2667 5.3329 0 15.999 2.9333 15.999 8.2667v2.6667h-31.997z" fill="#c2c7ca"/><path d="M0 0h48v48H0z" fill="none"/></svg>
